<svg width="24" height="24" viewBox="0 0 24 24" fill="none" xmlns="http://www.w3.org/2000/svg">
<path d="M21.6048 23.962C21.0332 23.9574 20.4859 23.7303 20.0791 23.3288L1.57214 4.83708C1.31979 4.65049 1.11066 4.41167 0.959024 4.13689C0.807392 3.86211 0.71685 3.55785 0.693533 3.24487C0.670216 2.93189 0.714663 2.61755 0.823904 2.32333C0.933145 2.02911 1.10456 1.76191 1.32649 1.53999C1.54841 1.31807 1.81561 1.14665 2.10983 1.0374C2.40405 0.928164 2.71839 0.883717 3.03137 0.907034C3.34435 0.930351 3.64861 1.02089 3.92339 1.17253C4.19817 1.32416 4.43699 1.53329 4.62358 1.78564L23.1153 20.2773C23.4188 20.5815 23.6257 20.9686 23.7101 21.39C23.7945 21.8113 23.7526 22.2482 23.5896 22.6458C23.4267 23.0434 23.1499 23.3841 22.7941 23.625C22.4383 23.8659 22.0192 23.9964 21.5895 24.0001L21.6048 23.962Z" fill="#3928B1"/>
<path d="M3.09764 23.962C2.66794 23.9583 2.24887 23.8277 1.89305 23.5868C1.53723 23.3458 1.26051 23.0052 1.09755 22.6076C0.934595 22.21 0.892662 21.7731 0.977053 21.3517C1.06144 20.9304 1.2684 20.5434 1.57192 20.2392L20.0636 1.74752C20.2502 1.49517 20.4891 1.28604 20.7638 1.1344C21.0386 0.982771 21.3429 0.892135 21.6559 0.868818C21.9688 0.845501 22.2831 0.890041 22.5774 0.999283C22.8716 1.10852 23.1388 1.27994 23.3607 1.50186C23.5826 1.72379 23.754 1.99099 23.8633 2.28521C23.9725 2.57943 24.017 2.89368 23.9937 3.20666C23.9704 3.51963 23.8798 3.82389 23.7282 4.09868C23.5765 4.37346 23.3674 4.61237 23.115 4.79896L4.62335 23.2906C4.22223 23.7055 3.67446 23.9465 3.09764 23.962Z" fill="#3928B1"/>
</svg>
