<svg width="17" height="14" viewBox="0 0 17 14" fill="none" xmlns="http://www.w3.org/2000/svg">
<g clip-path="url(#clip0_17_524)">
<path d="M9.87801 9.9043H7.11817C6.5224 9.9043 6.03943 10.3661 6.03943 10.9358V11.1315C6.03943 11.7012 6.5224 12.163 7.11817 12.163H9.87801C10.4738 12.163 10.9568 11.7012 10.9568 11.1315V10.9358C10.9568 10.3661 10.4738 9.9043 9.87801 9.9043Z" fill="#3928B1"/>
<path d="M4.75593 8.98964C4.21225 9.00082 3.67229 8.90118 3.17199 8.69738C2.6717 8.49357 2.22254 8.19026 1.85436 7.80759C-0.259818 5.65432 0.00788542 1.2612 0.0196964 1.07298C0.0297419 0.912857 0.1034 0.762477 0.22563 0.652603C0.34786 0.542729 0.509383 0.481647 0.677146 0.481935H4.2638V1.74306H2.07874C1.97776 1.74279 1.87779 1.76248 1.78515 1.80092C1.69251 1.83935 1.6092 1.89569 1.54043 1.96639C1.47166 2.0371 1.41892 2.12065 1.38554 2.21178C1.35216 2.30291 1.33886 2.39967 1.34647 2.49595C1.42127 3.83233 1.74016 5.85008 2.81496 6.96059C3.06043 7.21681 3.36102 7.41914 3.69608 7.55366C4.03114 7.68818 4.39274 7.75167 4.75593 7.73981V8.98964Z" fill="#3928B1"/>
<path d="M12.2638 8.98953V7.72468C12.6263 7.73599 12.9871 7.67219 13.3215 7.53769C13.6558 7.40319 13.9558 7.20114 14.2008 6.94541C15.2953 5.81607 15.5985 3.81715 15.6733 2.48077C15.6803 2.38461 15.6665 2.28808 15.6329 2.1972C15.5993 2.10631 15.5465 2.02299 15.4779 1.95241C15.4092 1.88182 15.3262 1.82551 15.2338 1.78688C15.1414 1.74826 15.0418 1.72816 14.941 1.72788H12.7559V0.466798H16.3386C16.5068 0.466453 16.6688 0.527356 16.7916 0.637145C16.9145 0.746935 16.989 0.897345 17 1.0578C17 1.24602 17.2756 5.63914 15.1654 7.79241C14.7986 8.17781 14.3501 8.48394 13.8497 8.69037C13.3493 8.89681 12.8087 8.99881 12.2638 8.98953Z" fill="#3928B1"/>
<path d="M12.6299 8.14705e-06H4.29131C4.05011 8.14705e-06 3.81878 0.091599 3.64823 0.254679C3.47767 0.417758 3.38184 0.638944 3.38184 0.869573V6.51625C3.38184 7.09941 3.50204 7.67686 3.73555 8.21559C3.96907 8.75431 4.31133 9.24375 4.74278 9.65593C5.17422 10.0681 5.68639 10.3949 6.25001 10.6178C6.81362 10.8406 7.41763 10.9551 8.02752 10.9546H8.89759C9.50748 10.9551 10.1115 10.8406 10.6752 10.6178C11.2388 10.3949 11.7509 10.0681 12.1823 9.65593C12.6138 9.24375 12.956 8.75431 13.1896 8.21559C13.4231 7.67686 13.5433 7.09941 13.5433 6.51625V0.869573C13.5433 0.755059 13.5196 0.641705 13.4737 0.535956C13.4277 0.430206 13.3604 0.334144 13.2755 0.253346C13.1906 0.172548 13.0899 0.108602 12.9791 0.0651233C12.8683 0.0216443 12.7497 -0.000487582 12.6299 8.14705e-06ZM11.0551 4.762L10.1929 5.56383C10.151 5.60526 10.1197 5.65533 10.1013 5.71015C10.0828 5.76497 10.0778 5.82311 10.0866 5.88008L10.2913 7.00942C10.2964 7.07358 10.2843 7.13792 10.256 7.19631C10.2277 7.25469 10.1843 7.30519 10.1298 7.34294C10.0753 7.3807 10.0116 7.40445 9.94475 7.41196C9.87791 7.41948 9.81016 7.4105 9.74799 7.38586L8.68108 6.85129C8.62793 6.82362 8.56835 6.80911 8.50783 6.80911C8.44731 6.80911 8.38777 6.82362 8.33462 6.85129L7.2716 7.38586C7.20943 7.4105 7.14173 7.41948 7.07489 7.41196C7.00806 7.40445 6.94436 7.3807 6.88987 7.34294C6.83537 7.30519 6.7919 7.25469 6.76362 7.19631C6.73533 7.13792 6.72316 7.07358 6.72829 7.00942L6.92908 5.88008C6.93978 5.82308 6.9357 5.76441 6.91716 5.70927C6.89863 5.65414 6.86625 5.6042 6.82282 5.56383L5.96059 4.762C5.91702 4.71295 5.88735 4.65403 5.87438 4.59088C5.8614 4.52772 5.86556 4.46245 5.88649 4.40127C5.90742 4.3401 5.9444 4.28511 5.9939 4.2415C6.0434 4.19789 6.1038 4.16711 6.16927 4.15216L7.35037 3.98655C7.4102 3.97701 7.46691 3.95438 7.51608 3.92042C7.56525 3.88647 7.60554 3.84209 7.63382 3.79079L8.16531 2.75934C8.19526 2.69869 8.24265 2.64745 8.30189 2.61155C8.36114 2.57565 8.4298 2.55659 8.49995 2.55659C8.57009 2.55659 8.6388 2.57565 8.69805 2.61155C8.75729 2.64745 8.80468 2.69869 8.83463 2.75934L9.37006 3.79079C9.39641 3.84275 9.43567 3.88777 9.48439 3.9219C9.53311 3.95602 9.58981 3.97821 9.64957 3.98655L10.8307 4.15216C10.8968 4.16612 10.958 4.19614 11.0085 4.23934C11.0589 4.28253 11.0969 4.33744 11.1186 4.39875C11.1404 4.46006 11.1453 4.52573 11.1328 4.58936C11.1203 4.65299 11.0908 4.71244 11.0472 4.762H11.0551Z" fill="#3928B1"/>
<path d="M12.7559 12.7351H4.24409C3.91141 12.7351 3.64172 12.993 3.64172 13.3111V13.424C3.64172 13.7421 3.91141 14 4.24409 14H12.7559C13.0886 14 13.3583 13.7421 13.3583 13.424V13.3111C13.3583 12.993 13.0886 12.7351 12.7559 12.7351Z" fill="#3928B1"/>
</g>
<defs>
<clipPath id="clip0_17_524">
<rect width="17" height="14" fill="white"/>
</clipPath>
</defs>
</svg>
