<svg width="15" height="16" viewBox="0 0 15 16" fill="none" xmlns="http://www.w3.org/2000/svg">
<g clip-path="url(#clip0_17_536)">
<path d="M15 5.55351V5.62774C14.9805 5.74069 14.9198 5.84147 14.8306 5.90912C14.6687 6.03418 14.5107 6.16706 14.3488 6.29994L13.261 7.1871C13.261 7.1871 13.2271 7.21055 13.2308 7.24182C13.2346 7.27308 13.2308 7.41379 13.2572 7.49977C13.2974 7.90838 13.2885 8.32059 13.2308 8.72694C13.2276 8.74047 13.2288 8.75474 13.2342 8.76749C13.2397 8.78023 13.2491 8.7907 13.261 8.79726L14.823 10.0713C14.8676 10.0997 14.9061 10.1374 14.9359 10.182C14.9657 10.2266 14.9862 10.2772 14.9961 10.3306C15.006 10.3839 15.0051 10.4387 14.9935 10.4917C14.9818 10.5446 14.9597 10.5944 14.9284 10.638L13.4228 13.3503C13.402 13.4003 13.3714 13.4452 13.3329 13.4822C13.2944 13.5192 13.2489 13.5474 13.1993 13.5651C13.1497 13.5828 13.097 13.5894 13.0448 13.5848C12.9925 13.5801 12.9418 13.5641 12.8958 13.5379L11.0589 12.7562C11.0478 12.7485 11.0347 12.7444 11.0213 12.7444C11.0079 12.7444 10.9948 12.7485 10.9837 12.7562C10.6087 13.0558 10.199 13.3053 9.76408 13.4988C9.74796 13.5046 9.73376 13.515 9.7231 13.5288C9.71244 13.5427 9.70575 13.5593 9.70384 13.5769C9.68126 13.7645 9.65493 13.9678 9.63235 14.1397C9.58342 14.4836 9.53824 14.8237 9.48931 15.1676C9.46673 15.3239 9.45165 15.4841 9.4253 15.6404C9.40811 15.738 9.35746 15.8258 9.28272 15.8876C9.20799 15.9494 9.11424 15.981 9.0188 15.9765H5.9435C5.85044 15.9771 5.76048 15.9419 5.69096 15.8777C5.62145 15.8135 5.57732 15.7247 5.56708 15.6287C5.56708 15.4919 5.52944 15.3551 5.51438 15.2379L5.28854 13.5848C5.28835 13.5707 5.28389 13.5571 5.27577 13.5459C5.26765 13.5346 5.2563 13.5263 5.24338 13.5222C4.80619 13.3286 4.39397 13.0792 4.01627 12.7797C4.00398 12.7713 3.98959 12.7668 3.97487 12.7668C3.96015 12.7668 3.94576 12.7713 3.93347 12.7797L2.09658 13.5613C2.05078 13.5869 2.00037 13.6024 1.94853 13.6067C1.89669 13.611 1.84455 13.6042 1.79539 13.5866C1.74623 13.5689 1.70113 13.5409 1.66292 13.5043C1.62471 13.4676 1.5942 13.4232 1.57336 13.3737L0.0677175 10.638C0.037568 10.5949 0.0162334 10.5459 0.0049976 10.4939C-0.00623817 10.4419 -0.00713901 10.3881 0.00237852 10.3358C0.0118961 10.2835 0.0316072 10.2337 0.0603198 10.1896C0.0890325 10.1454 0.126149 10.1079 0.169356 10.0791L1.73524 8.80508C1.74676 8.80002 1.75631 8.79116 1.76244 8.77984C1.76857 8.76853 1.77093 8.75538 1.76911 8.74254C1.70322 8.25248 1.70322 7.75534 1.76911 7.26529C1.77306 7.24908 1.77189 7.23196 1.7658 7.21648C1.7597 7.20101 1.749 7.18796 1.73524 7.17927L0.176892 5.91694C0.132581 5.88827 0.0944808 5.85033 0.0650525 5.80555C0.0356242 5.76077 0.0155208 5.71014 0.00596252 5.65685C-0.00359575 5.60355 -0.00238521 5.54876 0.00954652 5.49598C0.0214782 5.4432 0.0438537 5.39359 0.0752531 5.35028L1.5809 2.63799C1.60174 2.58852 1.63224 2.5441 1.67045 2.50747C1.70867 2.47084 1.75376 2.4428 1.80292 2.42517C1.85208 2.40755 1.90423 2.4007 1.95607 2.40504C2.00791 2.40938 2.05832 2.42483 2.10412 2.45041L3.94478 3.23204C3.95666 3.23965 3.97033 3.24368 3.98429 3.24368C3.99825 3.24368 4.01193 3.23965 4.02381 3.23204C4.39763 2.93386 4.80611 2.68569 5.23961 2.49339C5.25617 2.48896 5.27079 2.47883 5.28105 2.46463C5.29132 2.45042 5.29662 2.433 5.29608 2.41525L5.37511 1.84463C5.42028 1.50462 5.46545 1.1607 5.51438 0.82069C5.51438 0.664364 5.55204 0.504144 5.57839 0.347818C5.59237 0.25045 5.64125 0.162139 5.71522 0.100553C5.78919 0.0389661 5.88278 0.00865081 5.97736 0.015634H9.0715C9.16234 0.0240748 9.24755 0.0648885 9.31273 0.131133C9.3779 0.197377 9.41901 0.284948 9.42907 0.379066L9.47424 0.711298L9.71138 2.43476C9.71108 2.44643 9.71468 2.45785 9.72153 2.46711C9.72839 2.47636 9.73807 2.48288 9.74901 2.48557C10.1841 2.67933 10.5949 2.92738 10.9723 3.22422C10.9868 3.23447 11.0038 3.23996 11.0213 3.23996C11.0388 3.23996 11.0558 3.23447 11.0702 3.22422L12.9033 2.44259C12.9486 2.41817 12.9981 2.40359 13.049 2.39965C13.0998 2.39571 13.1509 2.40251 13.1991 2.41969C13.2473 2.43686 13.2917 2.46404 13.3295 2.49955C13.3673 2.53506 13.3978 2.57815 13.419 2.62626C13.8481 3.39226 14.2747 4.15956 14.6988 4.92817C14.8265 5.12117 14.9279 5.33165 15 5.55351ZM4.79924 7.99998C4.79924 8.55436 4.95759 9.09629 5.25431 9.55718C5.55103 10.0181 5.97279 10.3773 6.46616 10.5892C6.95954 10.8012 7.50235 10.8564 8.02598 10.748C8.54961 10.6396 9.0305 10.3723 9.4078 9.98006C9.78509 9.58778 10.0418 9.08809 10.1455 8.54427C10.2493 8.00044 10.1953 7.4369 9.99043 6.92495C9.78558 6.41299 9.43909 5.97563 8.99476 5.6682C8.55044 5.36077 8.02826 5.19708 7.49431 5.19786C7.14007 5.19786 6.7893 5.27033 6.46207 5.4112C6.13484 5.55207 5.83757 5.75854 5.58726 6.0188C5.33694 6.27905 5.13851 6.588 5.00329 6.92795C4.86807 7.2679 4.79874 7.63218 4.79924 7.99998Z" fill="#3928B1"/>
<path d="M7.49807 10.7553C6.97426 10.7468 6.46458 10.5775 6.03327 10.2688C5.60197 9.96005 5.26836 9.52571 5.07442 9.02044C4.88047 8.51516 4.83491 7.96157 4.94346 7.42946C5.05202 6.89734 5.30984 6.4105 5.68443 6.03026C6.05903 5.65002 6.53364 5.39336 7.04846 5.29271C7.56329 5.19205 8.09526 5.25186 8.57741 5.4646C9.05955 5.67733 9.4703 6.03348 9.75783 6.48815C10.0454 6.94282 10.1968 7.47568 10.1932 8.01959C10.1823 8.75247 9.89291 9.45121 9.38812 9.9636C8.88333 10.476 8.204 10.7605 7.49807 10.7553ZM7.49807 6.29217C7.17391 6.29756 6.85852 6.40229 6.5915 6.5932C6.32449 6.78411 6.11777 7.05269 5.9973 7.36519C5.87683 7.6777 5.84799 8.02021 5.91441 8.34968C5.98082 8.67915 6.13952 8.98092 6.37058 9.21704C6.60164 9.45316 6.89476 9.61313 7.2131 9.67684C7.53144 9.74055 7.86079 9.70516 8.15982 9.57513C8.45886 9.4451 8.71425 9.2262 8.89385 8.94597C9.07346 8.66573 9.16932 8.33664 9.16936 8.00003C9.16539 7.54361 8.98717 7.1075 8.67385 6.78732C8.36053 6.46714 7.93768 6.28904 7.49807 6.29217Z" fill="#3928B1" stroke="#3928B1" stroke-miterlimit="10"/>
<path d="M7.49433 3.97855C7.36256 3.97855 7.23619 3.9242 7.14301 3.82746C7.04983 3.73071 6.99749 3.59946 6.99749 3.46264V1.63365C6.99148 1.56187 6.99988 1.48958 7.02221 1.42135C7.04454 1.35313 7.08031 1.29046 7.1272 1.23735C7.1741 1.18424 7.23112 1.14184 7.29464 1.11283C7.35817 1.08382 7.42682 1.06885 7.49622 1.06885C7.56562 1.06885 7.63427 1.08382 7.69779 1.11283C7.76132 1.14184 7.81833 1.18424 7.86523 1.23735C7.91213 1.29046 7.94789 1.35313 7.97022 1.42135C7.99256 1.48958 8.001 1.56187 7.99499 1.63365V3.46264C7.99499 3.53072 7.98201 3.59812 7.95681 3.66096C7.9316 3.72381 7.89468 3.78089 7.84814 3.82884C7.8016 3.8768 7.74638 3.91469 7.68566 3.94038C7.62495 3.96607 7.5599 3.97906 7.49433 3.97855Z" fill="white"/>
<path d="M7.49806 14.8861C7.36594 14.8851 7.23958 14.8298 7.14651 14.7325C7.05344 14.6351 7.00122 14.5035 7.00122 14.3663V12.5373C7.01207 12.4077 7.06929 12.2871 7.16163 12.1992C7.25396 12.1113 7.37468 12.0625 7.49995 12.0625C7.62522 12.0625 7.74593 12.1113 7.83827 12.1992C7.9306 12.2871 7.98787 12.4077 7.99872 12.5373V14.3663C7.99872 14.5041 7.94594 14.6363 7.85205 14.7338C7.75817 14.8313 7.63084 14.8861 7.49806 14.8861Z" fill="white"/>
<path d="M11.2547 6.19819C11.1454 6.19776 11.0393 6.16022 10.9524 6.09128C10.8656 6.02234 10.8029 5.9258 10.7739 5.81639C10.7449 5.70699 10.7512 5.59071 10.7918 5.48535C10.8324 5.37999 10.9051 5.29133 10.9988 5.23289L12.5044 4.29883C12.6176 4.23832 12.7488 4.22489 12.8713 4.26129C12.9937 4.29768 13.0982 4.38115 13.1634 4.49472C13.2287 4.60828 13.2498 4.7434 13.2224 4.87256C13.1951 5.00171 13.1214 5.1152 13.0163 5.1899L11.5107 6.12396C11.4336 6.17275 11.345 6.19843 11.2547 6.19819Z" fill="white"/>
<path d="M2.22836 11.7752C2.14193 11.7742 2.05717 11.7504 1.98208 11.7059C1.90699 11.6615 1.84406 11.5979 1.79925 11.5211C1.76527 11.4627 1.74277 11.3979 1.73308 11.3304C1.72339 11.2629 1.72672 11.1941 1.74282 11.128C1.75893 11.0618 1.7875 10.9996 1.82691 10.945C1.86632 10.8904 1.9158 10.8445 1.97243 10.8099L3.47808 9.8758C3.5345 9.83569 3.5982 9.80801 3.66532 9.79446C3.73244 9.78091 3.80153 9.7818 3.86832 9.79703C3.9351 9.81227 3.99816 9.84153 4.05363 9.88305C4.10909 9.92457 4.1558 9.97746 4.19083 10.0384C4.22586 10.0994 4.24849 10.1672 4.25732 10.2376C4.26615 10.308 4.26097 10.3795 4.24216 10.4478C4.22334 10.516 4.19124 10.5796 4.14787 10.6344C4.1045 10.6893 4.05079 10.7344 3.98999 10.7669L2.48434 11.7009C2.4071 11.7493 2.31859 11.775 2.22836 11.7752Z" fill="white"/>
<path d="M12.7906 11.7362C12.7014 11.7365 12.614 11.7108 12.5383 11.6619L11.0327 10.7396C10.9283 10.6653 10.8548 10.5527 10.8272 10.4244C10.7995 10.2961 10.8197 10.1617 10.8836 10.0483C10.9475 9.93484 11.0505 9.85074 11.1717 9.81295C11.293 9.77516 11.4235 9.7865 11.5371 9.84463L13.0427 10.767C13.138 10.8244 13.2123 10.9128 13.2542 11.0186C13.2961 11.1244 13.3033 11.2415 13.2745 11.3519C13.2458 11.4623 13.1828 11.5598 13.0953 11.6293C13.0078 11.6988 12.9007 11.7363 12.7906 11.7362Z" fill="white"/>
<path d="M3.72268 6.22568C3.63426 6.22457 3.54756 6.20036 3.47051 6.15531L1.96486 5.23299C1.86043 5.15869 1.78696 5.04606 1.75929 4.91779C1.73162 4.78952 1.75182 4.65517 1.81576 4.54172C1.8797 4.42827 1.98265 4.34417 2.1039 4.30638C2.22516 4.26859 2.3557 4.27987 2.46924 4.33801L3.97489 5.26038C4.06857 5.31882 4.14125 5.40748 4.18184 5.51284C4.22243 5.6182 4.22872 5.73443 4.19971 5.84383C4.17071 5.95324 4.10801 6.04983 4.0212 6.11877C3.93439 6.18771 3.8282 6.22525 3.71891 6.22568H3.72268Z" fill="white"/>
</g>
<defs>
<clipPath id="clip0_17_536">
<rect width="15" height="16" fill="white"/>
</clipPath>
</defs>
</svg>
