<svg width="13" height="13" viewBox="0 0 13 13" fill="none" xmlns="http://www.w3.org/2000/svg">
<g clip-path="url(#clip0_145_859)">
<path d="M9.14281 1.60728L1.88061 8.86949C1.65422 9.09587 1.65422 9.46291 1.8806 9.68929L3.31028 11.119C3.53667 11.3454 3.90371 11.3453 4.13009 11.119L11.3923 3.85676C11.6187 3.63038 11.6187 3.26334 11.3923 3.03696L9.96262 1.60728C9.73623 1.38089 9.36919 1.3809 9.14281 1.60728Z" fill="#3928B1"/>
<path d="M10.5994 0.150282L10.342 0.407708C10.1413 0.608462 10.1413 0.93395 10.342 1.1347L11.8645 2.65719C12.0653 2.85795 12.3907 2.85794 12.5915 2.65719L12.8489 2.39976C13.0497 2.19901 13.0497 1.87352 12.8489 1.67276L11.3264 0.150276C11.1257 -0.0504784 10.8002 -0.0504716 10.5994 0.150282Z" fill="#3928B1"/>
<path d="M1.33779 10.1094L2.88936 11.6609C2.94092 11.7122 2.97816 11.7761 2.99741 11.8463C3.01665 11.9164 3.01723 11.9904 2.99907 12.0608C2.98091 12.1313 2.94464 12.1957 2.89388 12.2478C2.84311 12.2999 2.77961 12.3378 2.70967 12.3578L0.533105 12.9828C0.461382 13.0032 0.385526 13.004 0.313369 12.9853C0.241212 12.9665 0.175363 12.9288 0.122644 12.8761C0.0699239 12.8234 0.0322399 12.7575 0.0134766 12.6854C-0.0052868 12.6132 -0.00444239 12.5374 0.015918 12.4656L0.640918 10.2891C0.660895 10.2191 0.69881 10.1556 0.750905 10.1049C0.803001 10.0541 0.867466 10.0178 0.937902 9.99966C1.00834 9.9815 1.08229 9.98207 1.15244 10.0013C1.22259 10.0206 1.28648 10.0578 1.33779 10.1094V10.1094Z" fill="#3928B1"/>
</g>
<defs>
<clipPath id="clip0_145_859">
<rect width="13" height="13" fill="white"/>
</clipPath>
</defs>
</svg>
