<svg width="17" height="18" viewBox="0 0 17 18" fill="none" xmlns="http://www.w3.org/2000/svg">
<g clip-path="url(#clip0_17_515)">
<path d="M11.3346 1.7646H5.66934C5.42954 1.7646 5.19954 1.67163 5.02998 1.50616C4.86042 1.3407 4.76514 1.11631 4.76514 0.882302C4.76514 0.648298 4.86042 0.423859 5.02998 0.258393C5.19954 0.0929274 5.42954 0 5.66934 0H11.3346C11.5744 0 11.8044 0.0929274 11.974 0.258393C12.1435 0.423859 12.2388 0.648298 12.2388 0.882302C12.2388 1.11631 12.1435 1.3407 11.974 1.50616C11.8044 1.67163 11.5744 1.7646 11.3346 1.7646Z" fill="#3928B1"/>
<path d="M9.4205 2.89336V1.27979H7.61218V2.89336C8.2132 2.82979 8.81948 2.82979 9.4205 2.89336Z" fill="#3928B1"/>
<path d="M8.49998 2.5595C8.80544 2.5595 9.10682 2.5595 9.40414 2.6072V0.882324H7.59583V2.6072C7.89314 2.57937 8.19859 2.5595 8.49998 2.5595Z" fill="#3928B1"/>
<path d="M5.24989 3.51327C4.65049 3.10265 3.9206 2.91427 3.19155 2.98203C2.46249 3.04979 1.78215 3.36921 1.27296 3.88286C0.763774 4.39651 0.459155 5.07065 0.413948 5.78394C0.368741 6.49723 0.585917 7.20284 1.02636 7.7738C1.81239 5.8714 3.32752 4.34301 5.24989 3.51327Z" fill="white"/>
<path d="M5.05847 3.27894C4.46341 2.78342 3.69719 2.52781 2.91581 2.56421C2.13443 2.6006 1.39663 2.92622 0.852646 3.47479C0.308658 4.02336 -0.000619018 4.75363 -0.0122339 5.51691C-0.0238488 6.28018 0.263095 7.01909 0.790152 7.58318C1.61488 5.68037 3.13666 4.14578 5.05847 3.27894Z" fill="#3928B1"/>
<path d="M15.9777 7.77385C16.3794 7.25699 16.5968 6.6261 16.5968 5.97742C16.597 5.42791 16.4428 4.88889 16.1509 4.41895C15.859 3.94902 15.4406 3.56619 14.9413 3.31212C14.442 3.05805 13.8808 2.94247 13.3189 2.97795C12.757 3.01342 12.2158 3.19858 11.7542 3.51332C13.6765 4.34305 15.1916 5.87144 15.9777 7.77385Z" fill="white"/>
<path d="M16.214 7.58304C16.7297 7.01642 17.007 6.28053 16.9903 5.52283C16.9735 4.76513 16.6639 4.04159 16.1236 3.49721C15.5832 2.95283 14.852 2.62781 14.0765 2.58731C13.3009 2.5468 12.5383 2.79381 11.9415 3.2788C13.8653 4.1442 15.3889 5.6791 16.214 7.58304Z" fill="#3928B1"/>
<path d="M8.50005 3.40991C7.0211 3.40991 5.57534 3.83788 4.34564 4.63968C3.11593 5.44148 2.15752 6.58113 1.59155 7.91448C1.02558 9.24783 0.877494 10.715 1.16602 12.1305C1.45455 13.5459 2.16675 14.8461 3.21253 15.8666C4.25831 16.8871 5.59067 17.5821 7.0412 17.8636C8.49174 18.1452 9.9953 18.0007 11.3617 17.4484C12.728 16.8961 13.8959 15.9609 14.7175 14.7609C15.5392 13.5609 15.9778 12.1501 15.9778 10.7069C15.9778 8.7716 15.19 6.91561 13.7876 5.54716C12.3853 4.17872 10.4833 3.40991 8.50005 3.40991ZM4.14622 10.7864H2.82663C2.66743 10.7739 2.51886 10.7034 2.41054 10.5888C2.30222 10.4743 2.24205 10.3242 2.24205 10.1684C2.24205 10.0125 2.30222 9.86235 2.41054 9.74783C2.51886 9.6333 2.66743 9.56279 2.82663 9.55032H4.14622C4.30542 9.56279 4.45393 9.6333 4.56225 9.74783C4.67057 9.86235 4.73075 10.0125 4.73075 10.1684C4.73075 10.3242 4.67057 10.4743 4.56225 10.5888C4.45393 10.7034 4.30542 10.7739 4.14622 10.7864ZM9.13544 16.3267C9.14246 16.412 9.13127 16.4978 9.10262 16.5787C9.07398 16.6596 9.02848 16.7339 8.96899 16.7968C8.90949 16.8597 8.8373 16.9099 8.75694 16.9442C8.67659 16.9786 8.58981 16.9963 8.50209 16.9963C8.41437 16.9963 8.3276 16.9786 8.24724 16.9442C8.16689 16.9099 8.09469 16.8597 8.0352 16.7968C7.9757 16.7339 7.9302 16.6596 7.90156 16.5787C7.87291 16.4978 7.86173 16.412 7.86874 16.3267V14.9516C7.88152 14.7962 7.95383 14.6512 8.07119 14.5455C8.18855 14.4398 8.34238 14.3811 8.50209 14.3811C8.6618 14.3811 8.81568 14.4398 8.93304 14.5455C9.0504 14.6512 9.12266 14.7962 9.13544 14.9516V16.3267ZM12.8906 10.7864H8.50005C8.33225 10.7853 8.17172 10.7196 8.05344 10.6034C7.93517 10.4872 7.86874 10.3301 7.86874 10.1664V5.97735C7.86173 5.89203 7.87291 5.80622 7.90156 5.72531C7.9302 5.64441 7.9757 5.57014 8.0352 5.50724C8.09469 5.44433 8.16689 5.39413 8.24724 5.3598C8.3276 5.32546 8.41437 5.30774 8.50209 5.30774C8.58981 5.30774 8.67659 5.32546 8.75694 5.3598C8.8373 5.39413 8.90949 5.44433 8.96899 5.50724C9.02848 5.57014 9.07398 5.64441 9.10262 5.72531C9.13127 5.80622 9.14246 5.89203 9.13544 5.97735V9.5543H12.8906C13.0498 9.56677 13.1983 9.63728 13.3066 9.75181C13.4149 9.86633 13.4751 10.0165 13.4751 10.1723C13.4751 10.3282 13.4149 10.4783 13.3066 10.5928C13.1983 10.7073 13.0498 10.7779 12.8906 10.7903V10.7864Z" fill="#3928B1"/>
</g>
<defs>
<clipPath id="clip0_17_515">
<rect width="17" height="18" fill="white"/>
</clipPath>
</defs>
</svg>
