<svg width="41" height="41" viewBox="0 0 41 41" fill="none" xmlns="http://www.w3.org/2000/svg">
<path d="M27.8807 40.5685H3.72508C2.73716 40.5685 1.7897 40.1757 1.09114 39.4763C0.39258 38.777 0.000131607 37.8284 0.000131607 36.8394V32.463C0.000131607 29.466 1.18937 26.5917 3.30623 24.4724C5.42308 22.3532 8.29415 21.1626 11.2878 21.1626L20.3129 21.1626C23.3065 21.1626 26.1776 22.3532 28.2945 24.4724C30.4113 26.5917 31.6006 29.466 31.6006 32.463V36.824C31.6026 37.3146 31.5079 37.8007 31.3219 38.2546C31.136 38.7085 30.8624 39.1212 30.5168 39.469C30.1713 39.8169 29.7606 40.093 29.3082 40.2817C28.8559 40.4704 28.3708 40.5679 27.8807 40.5685Z" fill="#3928B1"/>
<path d="M15.8026 18.7484C20.974 18.7484 25.1663 14.5515 25.1663 9.37422C25.1663 4.19698 20.974 0 15.8026 0C10.6312 0 6.43896 4.19698 6.43896 9.37422C6.43896 14.5515 10.6312 18.7484 15.8026 18.7484Z" fill="#3928B1"/>
<path d="M30.7281 40.9948C29.8394 40.9935 28.9875 40.6398 28.3587 40.0112C27.7298 39.3827 27.3753 38.5303 27.3726 37.6407V23.772C27.3726 22.881 27.7261 22.0266 28.3554 21.3966C28.9847 20.7666 29.8381 20.4127 30.7281 20.4127C31.618 20.4127 32.4715 20.7666 33.1008 21.3966C33.7301 22.0266 34.0836 22.881 34.0836 23.772V37.6407C34.0823 38.5307 33.7281 39.3839 33.099 40.0127C32.4699 40.6416 31.6171 40.9948 30.7281 40.9948Z" fill="white"/>
<path d="M37.6446 34.0759H23.7916C22.9016 34.0759 22.0481 33.722 21.4188 33.092C20.7895 32.462 20.436 31.6075 20.436 30.7166C20.436 29.8257 20.7895 28.9712 21.4188 28.3412C22.0481 27.7112 22.9016 27.3573 23.7916 27.3573H37.6446C38.5346 27.3573 39.3881 27.7112 40.0173 28.3412C40.6466 28.9712 41.0002 29.8257 41.0002 30.7166C41.0002 31.6075 40.6466 32.462 40.0173 33.092C39.3881 33.722 38.5346 34.0759 37.6446 34.0759Z" fill="white"/>
<path d="M30.7282 38.7964C30.422 38.7964 30.1284 38.6746 29.9119 38.4579C29.6954 38.2412 29.5737 37.9472 29.5737 37.6407V23.772C29.5737 23.4655 29.6954 23.1715 29.9119 22.9548C30.1284 22.738 30.422 22.6163 30.7282 22.6163C31.0343 22.6163 31.328 22.738 31.5445 22.9548C31.761 23.1715 31.8826 23.4655 31.8826 23.772V37.6407C31.8826 37.9472 31.761 38.2412 31.5445 38.4579C31.328 38.6746 31.0343 38.7964 30.7282 38.7964Z" fill="#3928B1"/>
<path d="M30.7282 39.1611C30.32 39.1611 29.9285 38.9988 29.6398 38.7098C29.3512 38.4208 29.189 38.0288 29.189 37.6201V23.7514C29.1526 23.5308 29.1647 23.305 29.2243 23.0895C29.2839 22.874 29.3896 22.6741 29.5341 22.5036C29.6786 22.3332 29.8584 22.1962 30.0611 22.1022C30.2637 22.0083 30.4844 21.9597 30.7077 21.9597C30.931 21.9597 31.1517 22.0083 31.3543 22.1022C31.557 22.1962 31.7368 22.3332 31.8813 22.5036C32.0258 22.6741 32.1315 22.874 32.1911 23.0895C32.2507 23.305 32.2628 23.5308 32.2264 23.7514V37.6201C32.2266 38.0218 32.07 38.4077 31.7902 38.6955C31.5103 38.9833 31.1293 39.1504 30.7282 39.1611ZM30.7282 23.0066C30.52 23.0066 30.3204 23.0894 30.1731 23.2368C30.0259 23.3842 29.9432 23.5841 29.9432 23.7925V37.6612C29.9432 37.8697 30.0259 38.0696 30.1731 38.2169C30.3204 38.3643 30.52 38.4471 30.7282 38.4471C30.9364 38.4471 31.1361 38.3643 31.2833 38.2169C31.4305 38.0696 31.5132 37.8697 31.5132 37.6612V23.7925C31.5139 23.6891 31.4941 23.5866 31.4549 23.491C31.4156 23.3953 31.3578 23.3084 31.2848 23.2353C31.2118 23.1622 31.125 23.1043 31.0294 23.0651C30.9339 23.0258 30.8315 23.0059 30.7282 23.0066Z" fill="#3928B1"/>
<path d="M37.6442 31.8723H23.7912C23.485 31.8723 23.1913 31.7505 22.9749 31.5338C22.7584 31.3171 22.6367 31.0231 22.6367 30.7166C22.6367 30.4101 22.7584 30.1161 22.9749 29.8993C23.1913 29.6826 23.485 29.5609 23.7912 29.5609H37.6442C37.9504 29.5609 38.244 29.6826 38.4605 29.8993C38.677 30.1161 38.7987 30.4101 38.7987 30.7166C38.7987 31.0231 38.677 31.3171 38.4605 31.5338C38.244 31.7505 37.9504 31.8723 37.6442 31.8723Z" fill="#3928B1"/>
<path d="M37.6447 32.237H23.7916C23.4283 32.181 23.097 31.9966 22.8577 31.7172C22.6184 31.4379 22.4868 31.082 22.4868 30.714C22.4868 30.346 22.6184 29.9902 22.8577 29.7108C23.097 29.4315 23.4283 29.2471 23.7916 29.191H37.6447C38.008 29.2471 38.3393 29.4315 38.5786 29.7108C38.8179 29.9902 38.9495 30.346 38.9495 30.714C38.9495 31.082 38.8179 31.4379 38.5786 31.7172C38.3393 31.9966 38.008 32.181 37.6447 32.237ZM23.7916 29.9256C23.5937 29.9416 23.4091 30.0316 23.2745 30.1777C23.1398 30.3238 23.0651 30.5152 23.0651 30.714C23.0651 30.9128 23.1398 31.1043 23.2745 31.2504C23.4091 31.3965 23.5937 31.4865 23.7916 31.5025H37.6447C37.8426 31.4865 38.0272 31.3965 38.1618 31.2504C38.2965 31.1043 38.3712 30.9128 38.3712 30.714C38.3712 30.5152 38.2965 30.3238 38.1618 30.1777C38.0272 30.0316 37.8426 29.9416 37.6447 29.9256H23.7916Z" fill="#3928B1"/>
</svg>
