<svg width="18" height="17" viewBox="0 0 18 17" fill="none" xmlns="http://www.w3.org/2000/svg">
<g clip-path="url(#clip0_17_491)">
<path d="M17.9963 8.82017C17.9979 7.03039 17.5129 5.27368 16.5931 3.73694C15.6732 2.2002 14.3528 0.940913 12.7724 0.0931267C12.6743 0.0405005 12.566 0.00955428 12.4549 0.00235964C12.3438 -0.004835 12.2324 0.0118832 12.1283 0.0514229C12.0243 0.0909626 11.93 0.152389 11.8518 0.231503C11.7737 0.310618 11.7135 0.405573 11.6754 0.509937L8.66418 8.78291L12.7314 16.5982C12.7838 16.6976 12.8571 16.7846 12.9461 16.8534C13.0352 16.9222 13.138 16.9711 13.2477 16.9969C13.3573 17.0226 13.4712 17.0246 13.5817 17.0027C13.6921 16.9808 13.7966 16.9355 13.8881 16.8699C15.1651 15.9504 16.2039 14.7406 16.9184 13.3406C17.6329 11.9407 18.0024 10.391 17.9963 8.82017Z" fill="#3928B1"/>
<path d="M9.64554 0.837288C8.16285 0.562314 6.63274 0.702721 5.22523 1.24288C3.81772 1.78304 2.58791 2.7018 1.67244 3.89711C0.756969 5.09242 0.191683 6.51747 0.0393847 8.01393C-0.112914 9.51039 0.153725 11.0197 0.809703 12.3741C0.859225 12.4757 0.930373 12.5653 1.01813 12.6367C1.10589 12.7081 1.20816 12.7596 1.31789 12.7876C1.42762 12.8155 1.54214 12.8193 1.65349 12.7987C1.76484 12.7781 1.87039 12.7335 1.96272 12.6681L7.79481 8.57439L10.2313 1.87561C10.2714 1.76934 10.2877 1.65561 10.279 1.54239C10.2704 1.42918 10.2369 1.31921 10.1811 1.22025C10.1253 1.1213 10.0484 1.03574 9.95587 0.969578C9.86335 0.903416 9.75743 0.858266 9.64554 0.837288Z" fill="#3928B1"/>
<path d="M3.40305 12.642C3.31371 12.702 3.23892 12.7811 3.1841 12.8735C3.12928 12.9659 3.09582 13.0694 3.08617 13.1764C3.07651 13.2833 3.09091 13.3911 3.1283 13.4918C3.16569 13.5925 3.22512 13.6836 3.30229 13.7585C4.59179 15.0347 6.33647 15.7481 8.15304 15.7421C8.84812 15.7423 9.53907 15.6356 10.2015 15.4258C10.3014 15.3939 10.3931 15.3405 10.47 15.2694C10.5469 15.1983 10.6073 15.1113 10.6468 15.0144C10.6863 14.9175 10.704 14.8131 10.6987 14.7087C10.6933 14.6042 10.665 14.5021 10.6157 14.4098L8.00378 9.43408L3.40305 12.642Z" fill="#3928B1"/>
<path d="M15.3358 5H11.8694C11.5891 5 11.3619 5.2266 11.3619 5.50613V5.50985C11.3619 5.78938 11.5891 6.01598 11.8694 6.01598H15.3358C15.6161 6.01598 15.8433 5.78938 15.8433 5.50985V5.50613C15.8433 5.2266 15.6161 5 15.3358 5Z" fill="white"/>
<path d="M15.3358 6.66162H11.8694C11.5891 6.66162 11.3619 6.88822 11.3619 7.16775V7.17147C11.3619 7.451 11.5891 7.6776 11.8694 7.6776H15.3358C15.6161 7.6776 15.8433 7.451 15.8433 7.17147V7.16775C15.8433 6.88822 15.6161 6.66162 15.3358 6.66162Z" fill="white"/>
</g>
<defs>
<clipPath id="clip0_17_491">
<rect width="18" height="17" fill="white"/>
</clipPath>
</defs>
</svg>
