<svg width="20" height="14" viewBox="0 0 20 14" fill="none" xmlns="http://www.w3.org/2000/svg">
<g clip-path="url(#clip0_17_497)">
<path d="M9.00927 5.59741H9.86339C10.8982 5.59741 11.8905 5.99638 12.6222 6.70655C13.3539 7.41672 13.765 8.37991 13.765 9.38424V14.0001H5.10767V9.38424C5.10767 8.37991 5.51873 7.41672 6.25042 6.70655C6.98211 5.99638 7.9745 5.59741 9.00927 5.59741Z" fill="#3928B1"/>
<path d="M15.1656 7.01001C14.6805 7.01058 14.2006 7.10645 13.7546 7.29186C14.2288 8.05311 14.4792 8.92579 14.4789 9.81532V14.0166H17.9501C18.1684 14.0166 18.3779 13.9324 18.5323 13.7826C18.6867 13.6327 18.7735 13.4294 18.7735 13.2175V10.515C18.7739 10.0549 18.6809 9.59917 18.4998 9.17395C18.3187 8.74872 18.053 8.36231 17.7179 8.0368C17.3829 7.71129 16.985 7.45306 16.5471 7.27688C16.1091 7.1007 15.6397 7.01001 15.1656 7.01001Z" fill="#3928B1"/>
<path d="M5.09397 7.30843C4.62755 7.10132 4.12073 6.99388 3.60782 6.99341C3.13375 6.99341 2.66432 7.08408 2.22638 7.26026C1.78844 7.43644 1.39058 7.69468 1.05552 8.0202C0.720458 8.34571 0.454782 8.7321 0.273675 9.15733C0.0925674 9.58255 -0.000441811 10.0383 7.11845e-06 10.4984V13.2009C-0.000442739 13.3057 0.0204335 13.4095 0.0614385 13.5065C0.102443 13.6034 0.162792 13.6915 0.238976 13.7658C0.315161 13.84 0.405683 13.8989 0.505387 13.9391C0.605092 13.9793 0.712002 14 0.819967 14H4.39358V9.7987C4.39256 8.92264 4.63449 8.06248 5.09397 7.30843Z" fill="#3928B1"/>
<path d="M3.60783 6.4662C4.78523 6.4662 5.7397 5.53981 5.7397 4.39704C5.7397 3.25428 4.78523 2.32788 3.60783 2.32788C2.43043 2.32788 1.47595 3.25428 1.47595 4.39704C1.47595 5.53981 2.43043 6.4662 3.60783 6.4662Z" fill="#3928B1"/>
<path d="M15.1657 6.4662C16.3431 6.4662 17.2976 5.53981 17.2976 4.39704C17.2976 3.25428 16.3431 2.32788 15.1657 2.32788C13.9883 2.32788 13.0338 3.25428 13.0338 4.39704C13.0338 5.53981 13.9883 6.4662 15.1657 6.4662Z" fill="#3928B1"/>
<path d="M9.43626 4.96068C10.8476 4.96068 11.9918 3.8502 11.9918 2.48034C11.9918 1.11049 10.8476 0 9.43626 0C8.02488 0 6.88074 1.11049 6.88074 2.48034C6.88074 3.8502 8.02488 4.96068 9.43626 4.96068Z" fill="#3928B1"/>
</g>
<defs>
<clipPath id="clip0_17_497">
<rect width="20" height="14" fill="white"/>
</clipPath>
</defs>
</svg>
