<svg width="50" height="50" viewBox="0 0 50 50" fill="none" xmlns="http://www.w3.org/2000/svg">
<path d="M24.997 49.9941C38.8025 49.9941 49.9941 38.8025 49.9941 24.997C49.9941 11.1916 38.8025 0 24.997 0C11.1916 0 0 11.1916 0 24.997C0 38.8025 11.1916 49.9941 24.997 49.9941Z" fill="#3928B1"/>
<path d="M33.4478 41.3306H16.5584C15.4198 41.3306 14.3277 40.8782 13.5226 40.0731C12.7174 39.2679 12.2651 38.1759 12.2651 37.0372V35.825C12.2651 34.497 12.5267 33.182 13.0349 31.9551C13.5431 30.7282 14.2879 29.6135 15.227 28.6745C16.166 27.7354 17.2807 26.9905 18.5076 26.4823C19.7345 25.9742 21.0495 25.7126 22.3775 25.7126H27.6347C30.3167 25.7126 32.8888 26.778 34.7852 28.6745C36.6817 30.5709 37.7471 33.143 37.7471 35.825V37.0372C37.7471 38.1759 37.2947 39.2679 36.4896 40.0731C35.6844 40.8782 34.5924 41.3306 33.4538 41.3306H33.4478Z" fill="white"/>
<path d="M24.9971 23.767C29.1678 23.767 32.5488 20.386 32.5488 16.2153C32.5488 12.0445 29.1678 8.66351 24.9971 8.66351C20.8263 8.66351 17.4453 12.0445 17.4453 16.2153C17.4453 20.386 20.8263 23.767 24.9971 23.767Z" fill="white"/>
</svg>
